<mxfile host="app.diagrams.net" modified="2024-02-12T15:56:55.054Z" agent="Mozilla/5.0 (Windows NT 10.0; Win64; x64) AppleWebKit/537.36 (KHTML, like Gecko) Chrome/121.0.0.0 Safari/537.36" version="23.1.2" etag="8uLZj-Ncu6ew7LiG8l22" type="github">
  <diagram name="Pagina-1" id="A3ExzRN_EV327HXdjlLa">
    <mxGraphModel>
      <root>
        <mxCell id="0" />
        <mxCell id="1" parent="0" />
      </root>
    </mxGraphModel>
  </diagram>
</mxfile>
